<?xml version="1.0" encoding="UTF-8"?>
<!DOCTYPE svg PUBLIC "-//W3C//DTD SVG 1.1//EN" "http://www.w3.org/Graphics/SVG/1.1/DTD/svg11.dtd">
<svg version="1.1" xmlns="http://www.w3.org/2000/svg" xmlns:xlink="http://www.w3.org/1999/xlink" x="0px" y="0px" width="128" height="128" viewBox="0, 0, 128, 128">
  <g id="Background">
    <rect x="0" y="0" width="128" height="128" fill="#000000" fill-opacity="0"/>
  </g>
  <g id="Background">
    <path d="M18.093,6 L109.907,6 C116.561,6 122,11.441 122,18.095 L122,109.907 C122,116.561 116.561,122 109.907,122 L18.093,122 C11.439,122 6,116.561 6,109.907 L6,18.095 C6,11.441 11.439,6 18.093,6" fill="#727272"/>
    <path d="M20.719,20.953 L59.93,20.953 L67.333,20.953 L67.333,28.365 L67.333,63.252 L102.101,63.252 L109.514,63.252 L109.514,70.655 L109.514,105.401 L109.514,112.807 L109.514,112.821 L102.101,112.821 L102.101,70.655 L59.94,70.655 L59.94,70.522 L59.93,70.522 L59.93,28.365 L20.719,28.365 z" fill="#EBECEC"/>
    <path d="M73.92,26.671 C74.248,24.721 74.873,22.962 75.787,21.383 C76.705,19.807 77.82,18.455 79.148,17.331 C80.477,16.213 81.985,15.354 83.66,14.752 C85.341,14.147 87.136,13.846 89.05,13.846 C91.287,13.846 93.329,14.112 95.178,14.627 C97.028,15.143 98.618,15.924 99.942,16.962 C101.27,17.998 102.298,19.295 103.024,20.853 C103.751,22.409 104.112,24.223 104.112,26.3 C104.112,27.793 103.814,29.319 103.206,30.872 C102.609,32.43 101.764,33.809 100.687,35.014 L88.985,48.4 L104.052,48.4 L104.052,57.488 L73.609,57.488 L73.609,49.888 L90.479,30.47 C90.772,30.138 91.073,29.64 91.379,28.978 C91.693,28.315 91.85,27.648 91.85,26.981 C91.85,24.826 90.889,23.743 88.985,23.743 C88.196,23.743 87.514,24.109 86.934,24.839 C86.346,25.565 85.913,26.862 85.624,28.73 z" fill="#82D1F5"/>
    <path d="M42,67.805 L37.768,59.776 L33.469,67.805 L20.212,67.805 L30.793,52.054 L20.647,36.804 L33.84,36.804 L37.703,44.651 L41.567,36.804 L54.825,36.804 L44.614,52.054 L55.323,67.805 z" fill="#82D1F5"/>
    <path d="M81.893,110.601 L77.659,102.573 L73.362,110.601 L60.104,110.601 L70.686,94.854 L60.538,79.602 L73.733,79.602 L77.596,87.448 L81.46,79.602 L94.717,79.602 L84.505,94.854 L95.21,110.601 z" fill="#82D1F5"/>
  </g>
  <defs/>
</svg>
